<svg width="24" height="24" viewBox="0 0 24 24" fill="none" xmlns="http://www.w3.org/2000/svg">
<path d="M20.1659 22.4233H3.52962C3.27433 22.4249 3.02751 22.3329 2.83681 22.1652C2.64611 21.9976 2.52504 21.7661 2.49696 21.5154L1.68116 9.42135C1.67686 9.28623 1.70062 9.15167 1.75099 9.02598C1.80137 8.90028 1.87728 8.78611 1.97404 8.69052C2.0708 8.59493 2.18637 8.51994 2.31361 8.47018C2.44084 8.42041 2.57705 8.39694 2.71382 8.40118H21.1521C21.426 8.40118 21.6886 8.50867 21.8823 8.69998C22.0759 8.8913 22.1847 9.15078 22.1847 9.42135L21.1985 21.5256C21.1681 21.7744 21.046 22.0035 20.8555 22.169C20.6651 22.3346 20.4196 22.4251 20.1659 22.4233V22.4233Z" stroke="#000" stroke-width="2" stroke-linecap="round" stroke-linejoin="round"/>
<path d="M6.76758 11.7117V6.10082C6.76758 4.748 7.31158 3.45058 8.27989 2.49399C9.24821 1.5374 10.5615 1 11.9309 1C13.3003 1 14.6136 1.5374 15.5819 2.49399C16.5502 3.45058 17.0942 4.748 17.0942 6.10082V11.7117" stroke="#000" stroke-width="2" stroke-linecap="round" stroke-linejoin="round"/>
</svg>
