<svg width="29" height="25" viewBox="0 0 29 25" fill="none" xmlns="http://www.w3.org/2000/svg">
<path d="M24.7552 2.11999C23.4272 1.26907 21.854 0.910326 20.2985 1.10376C18.7431 1.2972 17.2997 2.03108 16.2096 3.18271L14.6174 4.78637H14.5801L13.0065 3.18271C11.9164 2.03108 10.473 1.2972 8.91753 1.10376C7.36208 0.910326 5.78886 1.26907 4.46088 2.11999C3.68479 2.63422 3.03054 3.31903 2.54571 4.12458C2.06088 4.93013 1.75767 5.83615 1.65818 6.7767C1.55869 7.71725 1.66541 8.66865 1.97056 9.56168C2.27572 10.4547 2.77164 11.2669 3.42223 11.9391L14.5365 23.9474L14.7604 23.7183L14.8289 23.7883L25.8125 11.9391C26.4622 11.2656 26.9569 10.4523 27.2606 9.55844C27.5643 8.66458 27.6693 7.71269 27.568 6.77206C27.4667 5.83143 27.1616 4.92577 26.6751 4.12101C26.1885 3.31624 25.5326 2.63264 24.7552 2.11999V2.11999Z" stroke="#3A4651" stroke-width="2" stroke-linecap="round" stroke-linejoin="round"/>
</svg>
