<svg width="80" height="80" viewBox="0 0 108 108" fill="none" xmlns="http://www.w3.org/2000/svg">
<path d="M54 105C82.1666 105 105 82.1665 105 54C105 25.8334 82.1666 3 54 3C25.8335 3 3 25.8334 3 54C3 82.1665 25.8335 105 54 105Z" stroke="#3CA833" stroke-width="5" stroke-miterlimit="10"/>
<path d="M70.5131 56.1879C69.4027 54.526 67.8675 53.2005 66.0712 52.3527C64.0769 51.4247 61.9674 50.7749 59.8005 50.4215V44.3116C60.976 45.0909 62.3699 45.4623 63.772 45.3697H66.7244C67.2216 45.3842 67.7158 45.2872 68.1716 45.0856C68.6273 44.8839 69.0334 44.5827 69.3606 44.2034C69.6878 43.8242 69.928 43.3762 70.064 42.8919C70.2 42.4076 70.2284 41.8989 70.1472 41.4021C69.866 40.265 69.3195 39.2127 68.5534 38.3337C67.0449 36.3654 65.0018 34.8854 62.6746 34.0752C61.7375 33.7451 60.7766 33.4885 59.8005 33.3081V29.6314C59.7004 28.1044 59.0307 26.673 57.9269 25.6273C56.8232 24.5816 55.3681 24 53.8564 24C52.3447 24 50.8895 24.5816 49.7858 25.6273C48.6821 26.673 48.0123 28.1044 47.9122 29.6314V33.3875C47.031 33.542 46.1588 33.7451 45.2994 33.9958C42.786 34.7822 40.5409 36.2668 38.8196 38.2808C37.0903 40.5423 36.2272 43.3607 36.3897 46.216C36.2713 48.5721 36.8933 50.9056 38.1664 52.8816C39.3805 54.6009 41.0332 55.9539 42.9479 56.7962C44.5057 57.4925 46.1238 58.0415 47.7815 58.4361V65.1547C47.2135 64.6501 46.5499 64.2678 45.8312 64.0314C45.1124 63.7949 44.3537 63.7091 43.6011 63.7792H39.4467C38.9503 63.7638 38.4568 63.8605 38.0019 64.0624C37.5471 64.2642 37.1424 64.5658 36.8171 64.9458C36.4919 65.3257 36.2542 65.7745 36.1216 66.2589C35.9889 66.7434 35.9645 67.2515 36.05 67.7468C36.3669 68.7203 36.8733 69.6197 37.5394 70.3918C39.0722 72.4522 41.1583 74.0222 43.5488 74.9148C44.9142 75.4678 46.3328 75.8758 47.7815 76.1317V79.5701C47.7276 80.3939 47.8413 81.22 48.1156 81.9975C48.3899 82.775 48.8189 83.4874 49.3762 84.0901C49.9335 84.6929 50.607 85.1736 51.3552 85.5021C52.1034 85.8306 52.9102 86 53.7258 86C54.5413 86 55.3481 85.8306 56.0963 85.5021C56.8444 85.1736 57.5181 84.6929 58.0753 84.0901C58.6326 83.4874 59.0616 82.775 59.3359 81.9975C59.6102 81.22 59.7239 80.3939 59.6699 79.5701V75.9464C60.9479 75.7117 62.1995 75.3483 63.4062 74.8618C65.9595 73.9126 68.1779 72.2192 69.7815 69.995C71.2793 67.7691 72.0472 65.1225 71.9762 62.4302C72.1199 60.2478 71.61 58.0723 70.5131 56.1879ZM59.8005 65.1811V62.8005C59.9335 63.1292 60.013 63.4777 60.0356 63.8321C60.0384 64.2925 59.9588 64.7496 59.8005 65.1811Z" fill="#3CA833"/>
</svg>
