<svg width="160" height="105" viewBox="0 0 160 105" fill="none" xmlns="http://www.w3.org/2000/svg">
<path d="M84.5182 67H17.4818C9.4837 67 3 73.5317 3 81.5885V84.4119C3 92.4688 9.4837 99 17.4818 99H84.5182C92.5163 99 99 92.4688 99 84.4119V81.5885C99 73.5317 92.5163 67 84.5182 67Z" stroke="#F7B050" stroke-width="5" stroke-miterlimit="10"/>
<path d="M84.5182 34H17.4818C9.4837 34 3 40.5313 3 48.5883V51.4117C3 59.4687 9.4837 66 17.4818 66H84.5182C92.5163 66 99 59.4687 99 51.4117V48.5883C99 40.5313 92.5163 34 84.5182 34Z" stroke="#F7B050" stroke-width="5" stroke-miterlimit="10"/>
<path d="M84.5182 3H17.4818C9.4837 3 3 9.53133 3 17.5883V20.4117C3 28.4687 9.4837 35 17.4818 35H84.5182C92.5163 35 99 28.4687 99 20.4117V17.5883C99 9.53133 92.5163 3 84.5182 3Z" stroke="#F7B050" stroke-width="5" stroke-miterlimit="10"/>
<path d="M154.427 80.5721L131.75 17.2385C129.045 9.68221 120.726 5.74987 113.17 8.45541L110.522 9.40353C102.966 12.1091 99.0329 20.428 101.738 27.9843L124.415 91.318C127.121 98.8742 135.44 102.806 142.996 100.101L145.644 99.1527C153.2 96.4472 157.133 88.1284 154.427 80.5721Z" stroke="#F7B050" stroke-width="5" stroke-miterlimit="10"/>
</svg>
