<svg width="29" height="29" viewBox="0 0 24 24" fill="none" xmlns="http://www.w3.org/2000/svg">
<path d="M18.0001 11.1427V8.57129C18.0001 6.97999 17.368 5.45387 16.2428 4.32865C15.1176 3.20343 13.5914 2.57129 12.0001 2.57129C10.4088 2.57129 8.88272 3.20343 7.7575 4.32865C6.63228 5.45387 6.00014 6.97999 6.00014 8.57129V11.1427C6.00014 13.9713 3.42871 14.657 3.42871 16.2856C3.42871 17.7427 6.77157 18.857 12.0001 18.857C17.2287 18.857 20.5716 17.7427 20.5716 16.2856C20.5716 14.657 18.0001 13.9713 18.0001 11.1427Z" stroke="#323842" stroke-width="2.05714" stroke-miterlimit="10" stroke-linecap="square"/>
<path d="M11.9999 20.5711C11.1333 20.5711 10.319 20.5419 9.55273 20.4854C9.7161 21.0065 10.0416 21.4618 10.4817 21.7851C10.9219 22.1084 11.4537 22.2828 11.9999 22.2828C12.546 22.2828 13.0779 22.1084 13.518 21.7851C13.9582 21.4618 14.2837 21.0065 14.447 20.4854C13.6807 20.5419 12.8664 20.5711 11.9999 20.5711Z" fill="#323842"/>
</svg>
