<svg width="23" height="18" viewBox="0 0 23 18" fill="none" xmlns="http://www.w3.org/2000/svg">
<path d="M2.47266 15.8988C3.11712 14.473 4.16227 13.2848 5.46963 12.4916C6.77699 11.6983 8.28488 11.3375 9.79354 11.4569C11.3022 11.5763 12.7404 12.1703 13.9177 13.1602C15.095 14.15 15.9558 15.4891 16.386 16.9999" stroke="#565E6C" stroke-width="2" stroke-linecap="round" stroke-linejoin="round"/>
<path d="M1.78125 17.0007C1.94319 16.5219 2.1763 16.0557 2.47692 15.6094" stroke="#565E6C" stroke-width="2" stroke-linecap="round" stroke-linejoin="round"/>
<path d="M9.18355 1C10.1729 1 11.1218 1.3573 11.8214 1.9933C12.521 2.62931 12.9141 3.49195 12.9141 4.3914V4.88272C12.9141 5.69799 12.5578 6.47983 11.9237 7.05631C11.2895 7.63279 10.4295 7.95668 9.53268 7.95668H8.6431C8.19905 7.95668 7.75935 7.87715 7.3491 7.72267C6.93885 7.56819 6.56609 7.34176 6.2521 7.05631C5.93811 6.77086 5.68904 6.43203 5.51911 6.05908C5.34918 5.68613 5.26172 5.2864 5.26172 4.88272V4.56528C5.26172 3.6197 5.67491 2.71288 6.4104 2.04426C7.14588 1.37563 8.14341 1 9.18355 1V1Z" stroke="#565E6C" stroke-width="2" stroke-linecap="round" stroke-linejoin="round"/>
<path d="M21.9531 15.6094C21.9531 16.0573 21.9531 16.5227 21.9531 17.0007" stroke="#565E6C" stroke-width="2" stroke-linecap="round" stroke-linejoin="round"/>
<path d="M12.2148 12.0004C13.1375 11.6246 14.1286 11.4322 15.1295 11.4346C16.5572 11.437 17.9552 11.83 19.1626 12.5684C20.37 13.3068 21.3377 14.3607 21.9542 15.6086" stroke="#565E6C" stroke-width="2" stroke-linecap="round" stroke-linejoin="round"/>
<path d="M12.2148 2.17392C12.561 1.80377 12.9841 1.50797 13.4566 1.30572C13.9291 1.10347 14.4404 0.999309 14.9574 1C15.8906 1 16.7855 1.3573 17.4453 1.99331C18.1052 2.62931 18.4759 3.49195 18.4759 4.3914V4.88272C18.4747 5.69764 18.1383 6.4788 17.5405 7.05504C16.9426 7.63127 16.1322 7.95553 15.2867 7.95668H14.4477" stroke="#565E6C" stroke-width="2" stroke-linecap="round" stroke-linejoin="round"/>
<path d="M14.3018 7.95641C13.9142 7.95684 13.5303 7.89561 13.1721 7.77622C12.814 7.65684 12.4887 7.48166 12.2148 7.26074" stroke="#565E6C" stroke-width="2" stroke-linecap="round" stroke-linejoin="round"/>
</svg>
