<svg width="18" height="14" viewBox="0 0 18 14" fill="none" xmlns="http://www.w3.org/2000/svg">
<path d="M8.97611 4.21575C10.5399 4.21575 11.8077 5.48349 11.8077 7.04732C11.8077 8.61116 10.5399 9.87891 8.97611 9.87891C7.41228 9.87891 6.14453 8.61116 6.14453 7.04732C6.14453 5.48349 7.41228 4.21575 8.97611 4.21575Z" stroke="#000" stroke-linecap="round" stroke-linejoin="round"/>
<path d="M1 6.93992C1.49618 8.6484 2.52425 10.1542 3.93482 11.2383C5.34538 12.3225 7.06492 12.9286 8.84355 12.9686C10.6222 13.0086 12.3672 12.4803 13.8251 11.4606C15.2829 10.4409 16.3776 8.98281 16.95 7.29834" stroke="#000" stroke-linecap="round" stroke-linejoin="round"/>
<path d="M1 6.76445C1.55258 5.07431 2.62946 3.60429 4.07432 2.5678C5.51917 1.53131 7.25677 0.982316 9.03485 1.00052C10.8129 1.01872 12.5389 1.60318 13.9623 2.66903C15.3856 3.73488 16.4322 5.22664 16.95 6.92773" stroke="#000" stroke-linecap="round" stroke-linejoin="round"/>
</svg>
