<svg width="26" height="28" viewBox="0 0 26 28" fill="none" xmlns="http://www.w3.org/2000/svg">
<path d="M1.21875 26.8747C1.85607 24.3385 3.31597 22.0806 5.37362 20.4486C7.43128 18.8166 9.97256 17.9011 12.6061 17.843C15.2397 17.7849 17.8195 18.5874 19.9482 20.1271C22.0769 21.6667 23.6365 23.858 24.3868 26.3635" stroke="#000" stroke-width="2" stroke-linecap="round" stroke-linejoin="round"/>
<path d="M13.3812 12.8494H12.219C10.7628 12.8494 9.3663 12.2754 8.33664 11.2537C7.30698 10.232 6.72852 8.84633 6.72852 7.40145V6.9028C6.72852 5.33724 7.35529 3.83577 8.47096 2.72875C9.58662 1.62173 11.0998 0.999828 12.6776 0.999828C13.4921 0.999008 14.2987 1.1576 15.0513 1.46649C15.804 1.77538 16.4878 2.22852 17.0637 2.79997C17.6397 3.37143 18.0963 4.04997 18.4076 4.79677C18.7189 5.54357 18.8788 6.34395 18.8779 7.15211V7.40145C18.8779 8.84633 18.2995 10.232 17.2698 11.2537C16.2401 12.2754 14.8436 12.8494 13.3874 12.8494H13.3812Z" stroke="#171A1F" stroke-width="2" stroke-linecap="round" stroke-linejoin="round"/>
</svg>
