<svg width="30" height="30" viewBox="0 0 30 30" fill="none" xmlns="http://www.w3.org/2000/svg">
<path d="M27 15.0001C26.9996 12.7069 26.3422 10.4618 25.1056 8.53067C23.8689 6.59951 22.1048 5.06313 20.0221 4.10341C17.9394 3.1437 15.6254 2.80083 13.3538 3.11541C11.0823 3.42998 8.94854 4.38883 7.20505 5.87843C5.46156 7.36803 4.18139 9.32601 3.5161 11.5206C2.85081 13.7151 2.82826 16.0543 3.45112 18.2613C4.07398 20.4683 5.31616 22.4506 7.03061 23.9735C8.74506 25.4965 10.86 26.4963 13.125 26.8546L13.125 18.4688H10.0785V15.0001H13.125L13.125 12.3563C13.125 9.34882 14.9167 7.68757 17.6572 7.68757C18.5573 7.70005 19.4551 7.77826 20.3438 7.92157L20.3437 10.8751H18.8302C18.5723 10.8408 18.31 10.865 18.0628 10.9459C17.8155 11.0268 17.5896 11.1624 17.4018 11.3424C17.214 11.5225 17.0691 11.7425 16.978 11.9862C16.8868 12.2299 16.8516 12.491 16.875 12.7501L16.875 15.0001H20.2035L19.671 18.4688H16.875L16.875 26.8546C19.6978 26.408 22.2686 24.9686 24.1248 22.7955C25.9809 20.6223 27.0005 17.858 27 15.0001Z" fill="white"/>
</svg>
