<svg width="38" height="38" viewBox="0 0 38 38" fill="none" xmlns="http://www.w3.org/2000/svg">
<path d="M15.5408 19C15.5408 17.09 17.0897 15.5412 19.0009 15.5412C20.912 15.5412 22.4617 17.09 22.4617 19C22.4617 20.91 20.912 22.4588 19.0009 22.4588C17.0897 22.4588 15.5408 20.91 15.5408 19ZM13.67 19C13.67 21.9425 16.0566 24.3277 19.0009 24.3277C21.9451 24.3277 24.3318 21.9425 24.3318 19C24.3318 16.0575 21.9451 13.6723 19.0009 13.6723C16.0566 13.6723 13.67 16.0575 13.67 19ZM23.297 13.4611C23.2969 13.7073 23.3699 13.9481 23.5067 14.1529C23.6435 14.3577 23.838 14.5173 24.0656 14.6117C24.2932 14.706 24.5437 14.7308 24.7854 14.6828C25.027 14.6349 25.2491 14.5164 25.4234 14.3423C25.5977 14.1683 25.7164 13.9465 25.7646 13.705C25.8127 13.4635 25.7882 13.2131 25.694 12.9856C25.5998 12.758 25.4402 12.5635 25.2354 12.4266C25.0305 12.2897 24.7897 12.2166 24.5433 12.2165H24.5428C24.2125 12.2167 23.8958 12.3478 23.6622 12.5812C23.4286 12.8145 23.2973 13.131 23.297 13.4611ZM14.8067 27.4454C13.7945 27.3994 13.2443 27.2309 12.8787 27.0885C12.394 26.8999 12.0482 26.6753 11.6846 26.3124C11.321 25.9495 11.0959 25.6042 10.908 25.1198C10.7655 24.7546 10.5969 24.2046 10.5509 23.193C10.5006 22.0994 10.4905 21.7709 10.4905 19.0001C10.4905 16.2293 10.5014 15.9017 10.5509 14.8072C10.597 13.7956 10.7668 13.2467 10.908 12.8804C11.0967 12.396 11.3215 12.0503 11.6846 11.6869C12.0477 11.3236 12.3932 11.0986 12.8787 10.9109C13.2442 10.7684 13.7945 10.5999 14.8067 10.5539C15.901 10.5036 16.2297 10.4936 19.0009 10.4936C21.772 10.4936 22.1011 10.5045 23.1963 10.5539C24.2085 10.6 24.7577 10.7698 25.1243 10.9109C25.609 11.0986 25.9548 11.3241 26.3184 11.6869C26.682 12.0498 26.9063 12.396 27.095 12.8804C27.2375 13.2456 27.4061 13.7956 27.4521 14.8072C27.5024 15.9017 27.5125 16.2293 27.5125 19.0001C27.5125 21.7709 27.5024 22.0985 27.4521 23.193C27.406 24.2046 27.2366 24.7544 27.095 25.1198C26.9063 25.6042 26.6815 25.9499 26.3184 26.3124C25.9553 26.675 25.609 26.8999 25.1243 27.0885C24.7588 27.2309 24.2085 27.3994 23.1963 27.4454C22.102 27.4957 21.7733 27.5058 19.0009 27.5058C16.2285 27.5058 15.9006 27.4957 14.8067 27.4454ZM14.7207 8.68735C13.6155 8.73765 12.8603 8.91278 12.2008 9.16927C11.5177 9.43413 10.9395 9.78947 10.3617 10.366C9.78389 10.9426 9.42925 11.5214 9.16422 12.204C8.90759 12.8635 8.73234 13.6179 8.68201 14.7224C8.63085 15.8287 8.61914 16.1824 8.61914 19C8.61914 21.8177 8.63085 22.1714 8.68201 23.2776C8.73234 24.3822 8.90759 25.1365 9.16422 25.7961C9.42925 26.4783 9.78397 27.0577 10.3617 27.634C10.9394 28.2103 11.5177 28.5652 12.2008 28.8308C12.8615 29.0872 13.6155 29.2624 14.7207 29.3127C15.8282 29.363 16.1815 29.3755 19.0009 29.3755C21.8202 29.3755 22.1741 29.3638 23.2811 29.3127C24.3863 29.2624 25.141 29.0872 25.801 28.8308C26.4836 28.5652 27.0622 28.2106 27.64 27.634C28.2179 27.0575 28.5717 26.4783 28.8375 25.7961C29.0942 25.1365 29.2702 24.3822 29.3197 23.2776C29.3701 22.1705 29.3818 21.8177 29.3818 19C29.3818 16.1824 29.3701 15.8287 29.3197 14.7224C29.2694 13.6178 29.0942 12.8631 28.8375 12.204C28.5717 11.5218 28.2169 10.9435 27.64 10.366C27.0632 9.78856 26.4836 9.43413 25.8018 9.16927C25.141 8.91278 24.3862 8.73682 23.2819 8.68735C22.1749 8.63705 21.821 8.62451 19.0017 8.62451C16.1824 8.62451 15.8282 8.63622 14.7207 8.68735Z" fill="url(#paint0_radial_2119_1581)"/>
<path d="M15.5408 19C15.5408 17.09 17.0897 15.5412 19.0009 15.5412C20.912 15.5412 22.4617 17.09 22.4617 19C22.4617 20.91 20.912 22.4588 19.0009 22.4588C17.0897 22.4588 15.5408 20.91 15.5408 19ZM13.67 19C13.67 21.9425 16.0566 24.3277 19.0009 24.3277C21.9451 24.3277 24.3318 21.9425 24.3318 19C24.3318 16.0575 21.9451 13.6723 19.0009 13.6723C16.0566 13.6723 13.67 16.0575 13.67 19ZM23.297 13.4611C23.2969 13.7073 23.3699 13.9481 23.5067 14.1529C23.6435 14.3577 23.838 14.5173 24.0656 14.6117C24.2932 14.706 24.5437 14.7308 24.7854 14.6828C25.027 14.6349 25.2491 14.5164 25.4234 14.3423C25.5977 14.1683 25.7164 13.9465 25.7646 13.705C25.8127 13.4635 25.7882 13.2131 25.694 12.9856C25.5998 12.758 25.4402 12.5635 25.2354 12.4266C25.0305 12.2897 24.7897 12.2166 24.5433 12.2165H24.5428C24.2125 12.2167 23.8958 12.3478 23.6622 12.5812C23.4286 12.8145 23.2973 13.131 23.297 13.4611ZM14.8067 27.4454C13.7945 27.3994 13.2443 27.2309 12.8787 27.0885C12.394 26.8999 12.0482 26.6753 11.6846 26.3124C11.321 25.9495 11.0959 25.6042 10.908 25.1198C10.7655 24.7546 10.5969 24.2046 10.5509 23.193C10.5006 22.0994 10.4905 21.7709 10.4905 19.0001C10.4905 16.2293 10.5014 15.9017 10.5509 14.8072C10.597 13.7956 10.7668 13.2467 10.908 12.8804C11.0967 12.396 11.3215 12.0503 11.6846 11.6869C12.0477 11.3236 12.3932 11.0986 12.8787 10.9109C13.2442 10.7684 13.7945 10.5999 14.8067 10.5539C15.901 10.5036 16.2297 10.4936 19.0009 10.4936C21.772 10.4936 22.1011 10.5045 23.1963 10.5539C24.2085 10.6 24.7577 10.7698 25.1243 10.9109C25.609 11.0986 25.9548 11.3241 26.3184 11.6869C26.682 12.0498 26.9063 12.396 27.095 12.8804C27.2375 13.2456 27.4061 13.7956 27.4521 14.8072C27.5024 15.9017 27.5125 16.2293 27.5125 19.0001C27.5125 21.7709 27.5024 22.0985 27.4521 23.193C27.406 24.2046 27.2366 24.7544 27.095 25.1198C26.9063 25.6042 26.6815 25.9499 26.3184 26.3124C25.9553 26.675 25.609 26.8999 25.1243 27.0885C24.7588 27.2309 24.2085 27.3994 23.1963 27.4454C22.102 27.4957 21.7733 27.5058 19.0009 27.5058C16.2285 27.5058 15.9006 27.4957 14.8067 27.4454ZM14.7207 8.68735C13.6155 8.73765 12.8603 8.91278 12.2008 9.16927C11.5177 9.43413 10.9395 9.78947 10.3617 10.366C9.78389 10.9426 9.42925 11.5214 9.16422 12.204C8.90759 12.8635 8.73234 13.6179 8.68201 14.7224C8.63085 15.8287 8.61914 16.1824 8.61914 19C8.61914 21.8177 8.63085 22.1714 8.68201 23.2776C8.73234 24.3822 8.90759 25.1365 9.16422 25.7961C9.42925 26.4783 9.78397 27.0577 10.3617 27.634C10.9394 28.2103 11.5177 28.5652 12.2008 28.8308C12.8615 29.0872 13.6155 29.2624 14.7207 29.3127C15.8282 29.363 16.1815 29.3755 19.0009 29.3755C21.8202 29.3755 22.1741 29.3638 23.2811 29.3127C24.3863 29.2624 25.141 29.0872 25.801 28.8308C26.4836 28.5652 27.0622 28.2106 27.64 27.634C28.2179 27.0575 28.5717 26.4783 28.8375 25.7961C29.0942 25.1365 29.2702 24.3822 29.3197 23.2776C29.3701 22.1705 29.3818 21.8177 29.3818 19C29.3818 16.1824 29.3701 15.8287 29.3197 14.7224C29.2694 13.6178 29.0942 12.8631 28.8375 12.204C28.5717 11.5218 28.2169 10.9435 27.64 10.366C27.0632 9.78856 26.4836 9.43413 25.8018 9.16927C25.141 8.91278 24.3862 8.73682 23.2819 8.68735C22.1749 8.63705 21.821 8.62451 19.0017 8.62451C16.1824 8.62451 15.8282 8.63622 14.7207 8.68735Z" fill="white"/>
<defs>
<radialGradient id="paint0_radial_2119_1581" cx="0" cy="0" r="1" gradientUnits="userSpaceOnUse" gradientTransform="translate(11.3777 29.4736) scale(27.105 27.0887)">
<stop offset="0.09" stop-color="#FA8F21"/>
<stop offset="0.78" stop-color="#D82D7E"/>
</radialGradient>
</defs>
</svg>
