<svg width="30" height="30" viewBox="0 0 30 30" fill="none" xmlns="http://www.w3.org/2000/svg">
<path d="M24.75 3.75L5.25 3.75C4.85218 3.75 4.47064 3.90804 4.18934 4.18934C3.90804 4.47064 3.75 4.85218 3.75 5.25L3.75 24.75C3.75 25.1478 3.90804 25.5294 4.18934 25.8107C4.47064 26.092 4.85218 26.25 5.25 26.25L24.75 26.25C25.1478 26.25 25.5294 26.092 25.8107 25.8107C26.092 25.5294 26.25 25.1478 26.25 24.75L26.25 5.25C26.25 4.85218 26.092 4.47064 25.8107 4.18934C25.5294 3.90804 25.1478 3.75 24.75 3.75ZM10.4152 22.9455H7.0305L7.0305 12.1875L10.4152 12.1875L10.4152 22.9455ZM8.7225 10.7108C8.33338 10.7096 7.95333 10.5931 7.63036 10.376C7.30739 10.159 7.05599 9.8511 6.9079 9.49126C6.75981 9.13141 6.72167 8.73575 6.79831 8.35425C6.87495 7.97275 7.06293 7.62251 7.3385 7.34778C7.61408 7.07304 7.96488 6.88613 8.34662 6.81065C8.72835 6.73517 9.1239 6.77451 9.48329 6.92369C9.84268 7.07288 10.1498 7.32522 10.3659 7.64885C10.5819 7.97248 10.6972 8.35287 10.6972 8.742C10.6974 9.00107 10.6463 9.25762 10.547 9.49691C10.4477 9.73621 10.3022 9.95355 10.1187 10.1365C9.93525 10.3194 9.71746 10.4643 9.47787 10.5628C9.23827 10.6614 8.98157 10.7116 8.7225 10.7108ZM22.9657 22.9455H19.65L19.65 17.742C19.65 16.4768 19.65 14.9295 17.8875 14.9295C16.125 14.9295 15.9127 16.266 15.9127 17.6715L15.9127 23.016H12.6L12.6 12.1875L15.702 12.1875V13.6642H15.7725C16.0924 13.1111 16.5567 12.6554 17.1156 12.3457C17.6746 12.0361 18.3072 11.8842 18.9457 11.9063C22.3305 11.9063 22.965 14.1563 22.965 17.0392L22.9657 22.9455Z" fill="white"/>
</svg>
