<svg width="30" height="30" viewBox="0 0 30 30" fill="none" xmlns="http://www.w3.org/2000/svg">
<path d="M26.775 10.1999C26.775 10.1999 26.55 8.5499 25.8 7.7999C24.9 6.8249 23.85 6.8249 23.4 6.7499C20.025 6.5249 15 6.5249 15 6.5249C15 6.5249 9.975 6.5249 6.6 6.7499C6.15 6.8249 5.1 6.8249 4.2 7.7999C3.45 8.5499 3.225 10.1999 3.225 10.1999C3.225 10.1999 3 12.1499 3 14.0999L3 15.8999C3 17.8499 3.225 19.7999 3.225 19.7999C3.225 19.7999 3.45 21.4499 4.2 22.1999C5.1 23.1749 6.3 23.0999 6.825 23.2499C8.775 23.3999 15 23.4749 15 23.4749C15 23.4749 20.025 23.4749 23.4 23.2499C23.85 23.1749 24.9 23.1749 25.8 22.1999C26.55 21.4499 26.775 19.7999 26.775 19.7999C26.775 19.7999 27 17.8499 27 15.8999V14.0999C27 12.1499 26.775 10.1999 26.775 10.1999ZM12.525 18.1499L12.525 11.3999L18.975 14.7749L12.525 18.1499Z" fill="white"/>
</svg>
