<svg width="30" height="30" viewBox="0 0 30 30" fill="none" xmlns="http://www.w3.org/2000/svg">
<path d="M26.9998 7.575C26.0998 7.95 25.1998 8.25 24.1498 8.325C25.1998 7.725 25.9498 6.75 26.3248 5.625C25.3498 6.225 24.2998 6.6 23.1748 6.825C22.2748 5.85 20.9998 5.25 19.6498 5.25C16.9498 5.25 14.6998 7.425 14.6998 10.2C14.6998 10.575 14.7748 10.95 14.8498 11.325C10.7248 11.1 7.1248 9.15 4.6498 6.15C4.1998 6.9 3.9748 7.725 3.9748 8.625C3.9748 10.35 4.8748 11.85 6.1498 12.75C5.3248 12.75 4.5748 12.525 3.8998 12.15V12.225C3.8998 14.625 5.6248 16.575 7.8748 17.025C7.4248 17.1 7.0498 17.175 6.5998 17.175C6.2998 17.175 5.9998 17.175 5.6998 17.1C6.2998 19.05 8.1748 20.475 10.2748 20.55C8.6248 21.9 6.4498 22.65 4.1248 22.65C3.7498 22.65 3.2998 22.65 2.9248 22.575C5.1748 23.925 7.79981 24.75 10.5748 24.75C19.6498 24.75 24.5998 17.25 24.5998 10.725C24.5998 10.5 24.5998 10.275 24.5998 10.125C25.4998 9.375 26.3248 8.55 26.9998 7.575Z" fill="white"/>
</svg>
