<svg width="30" height="31" viewBox="0 0 30 31" fill="none" xmlns="http://www.w3.org/2000/svg">
<path d="M28.6013 11.9775L26.3312 16.1575L27.7974 20.6913L23.4952 22.7299L22.0225 27.2572L17.3472 26.3826L13.4952 29.18L10.2219 25.7202H5.46301L4.84565 21L1 18.2026L3.27009 14.0225L1.80386 9.49516L6.1061 7.45015L7.57877 2.92282L12.254 3.79741L16.1061 1L19.3794 4.45981H24.1382L24.7556 9.18006L28.6013 11.9775Z" stroke="#C18031" stroke-width="2" stroke-linecap="round" stroke-linejoin="round"/>
<path d="M14.3125 20.1317C14.1419 20.1317 13.9784 20.0639 13.8578 19.9433C13.7372 19.8227 13.6694 19.6591 13.6694 19.4886V12.8905C13.6917 12.6736 13.6676 12.4543 13.5987 12.2474C13.3853 12.3463 13.1827 12.467 12.9942 12.6076L11.708 13.4822C11.4186 13.6815 11.1807 13.5529 11.1807 13.1992V11.868C11.1919 11.6728 11.2447 11.4823 11.3357 11.3093C11.4267 11.1363 11.5536 10.9847 11.708 10.8648L13.1485 9.90017C13.5038 9.68195 13.9088 9.558 14.3254 9.54004H16.0617C16.2322 9.54004 16.3958 9.60778 16.5164 9.72838C16.637 9.84899 16.7048 10.0126 16.7048 10.1831V19.4821C16.7048 19.6527 16.637 19.8163 16.5164 19.9369C16.3958 20.0575 16.2322 20.1252 16.0617 20.1252L14.3125 20.1317Z" fill="#C18031"/>
</svg>
