<svg width="30" height="30" viewBox="0 0 30 30" fill="none" xmlns="http://www.w3.org/2000/svg">
<path d="M15 29C22.732 29 29 22.732 29 15C29 7.26801 22.732 1 15 1C7.26801 1 1 7.26801 1 15C1 22.732 7.26801 29 15 29Z" stroke="#C18031" stroke-width="2" stroke-linecap="round" stroke-linejoin="round"/>
<path d="M19 12.2895C19 14.4991 17.2096 17 15 17C12.7904 17 11 14.4991 11 12.2895C11 10.0799 12.7904 9 15 9C17.2096 9 19 10.0657 19 12.2895Z" stroke="#C18031" stroke-width="2" stroke-linecap="round" stroke-linejoin="round"/>
<path d="M7 27C7.43935 25.0357 8.44699 23.2865 9.86775 22.022C11.2885 20.7576 13.0435 20.0479 14.8625 20.0023C16.6814 19.9568 18.4634 20.5779 19.9339 21.77C21.4043 22.9621 22.4817 24.659 23 26.5994" stroke="#C18031" stroke-width="2" stroke-linecap="round" stroke-linejoin="round"/>
</svg>
