<svg width="30" height="27" viewBox="0 0 30 27" fill="none" xmlns="http://www.w3.org/2000/svg">
<path d="M11.875 16.3125L11.875 12.9375" stroke="#222222" stroke-linecap="round"/>
<path d="M18.125 16.3125L18.125 12.9375" stroke="#222222" stroke-linecap="round"/>
<path d="M3.75 7.3125H26.25H25.875C23.9894 7.3125 23.0466 7.3125 22.4608 7.89829C21.875 8.48407 21.875 9.42688 21.875 11.3125V17.9375C21.875 19.8231 21.875 20.7659 21.2892 21.3517C20.7034 21.9375 19.7606 21.9375 17.875 21.9375H12.125C10.2394 21.9375 9.29657 21.9375 8.71079 21.3517C8.125 20.7659 8.125 19.8231 8.125 17.9375V11.3125C8.125 9.42688 8.125 8.48407 7.53921 7.89829C6.95343 7.3125 6.01062 7.3125 4.125 7.3125H3.75Z" stroke="#222222" stroke-linecap="round"/>
<path d="M11.875 3.93777C11.875 3.93777 12.5 2.8125 15 2.8125C17.5 2.8125 18.125 3.9375 18.125 3.9375" stroke="#222222" stroke-linecap="round"/>
</svg>
