<svg width="43" height="44" viewBox="0 0 43 44" fill="none" xmlns="http://www.w3.org/2000/svg">
<path d="M37.841 33.3648C33.301 40.4748 27.641 43.5447 23.841 41.7047C17.481 38.6247 24.7209 31.4447 20.5709 28.6547C18.5709 27.2847 11.681 31.1147 5.871 27.2047C4.211 26.0947 -1.339 20.0047 4.871 10.8347C6.35615 8.62759 8.26665 6.73893 10.4907 5.27931C12.7148 3.81969 15.2079 2.81836 17.8237 2.33412C20.4395 1.84988 23.1257 1.89239 25.7249 2.45912C28.3241 3.02585 30.7841 4.10542 32.961 5.63466C41.741 11.8747 43.651 24.2048 37.841 33.3648Z" stroke="black" stroke-width="3" stroke-miterlimit="10"/>
<path d="M14.3408 17.0645C14.8931 17.0645 15.3408 16.6167 15.3408 16.0645C15.3408 15.5122 14.8931 15.0645 14.3408 15.0645C13.7885 15.0645 13.3408 15.5122 13.3408 16.0645C13.3408 16.6167 13.7885 17.0645 14.3408 17.0645Z" stroke="black" stroke-width="3" stroke-miterlimit="10"/>
<path d="M26.3408 16.0645C26.8931 16.0645 27.3408 15.6167 27.3408 15.0645C27.3408 14.5122 26.8931 14.0645 26.3408 14.0645C25.7885 14.0645 25.3408 14.5122 25.3408 15.0645C25.3408 15.6167 25.7885 16.0645 26.3408 16.0645Z" stroke="black" stroke-width="3" stroke-miterlimit="10"/>
<path d="M31.3408 26.0645C31.8931 26.0645 32.3408 25.6167 32.3408 25.0645C32.3408 24.5122 31.8931 24.0645 31.3408 24.0645C30.7885 24.0645 30.3408 24.5122 30.3408 25.0645C30.3408 25.6167 30.7885 26.0645 31.3408 26.0645Z" stroke="black" stroke-width="3" stroke-miterlimit="10"/>
</svg>
