<svg width="45" height="44" viewBox="0 0 45 44" fill="none" xmlns="http://www.w3.org/2000/svg">
<path d="M34.43 32.3494C33.5231 34.4963 32.166 36.4236 30.4505 38.0012C28.735 39.5788 26.701 40.7699 24.4857 41.4941C22.2705 42.2183 19.9256 42.4587 17.6095 42.1992C15.2934 41.9396 13.06 41.186 11.06 39.9894L2 42.3894L4.56 32.7094C3.00748 29.3117 2.67297 25.4829 3.61279 21.8675C4.55262 18.2521 6.70938 15.0709 9.72 12.8594" stroke="black" stroke-width="3" stroke-linecap="round" stroke-linejoin="round"/>
<path d="M43.4296 34.7492L40.8696 25.0692C42.4804 21.5138 42.7645 17.499 41.6703 13.7523C40.5761 10.0055 38.176 6.77467 34.905 4.64498C31.6339 2.5153 27.7082 1.62766 23.8391 2.14297C19.97 2.65828 16.4135 4.54242 13.8139 7.45401C11.2142 10.3656 9.7435 14.112 9.66809 18.0146C9.59268 21.9171 10.9176 25.7175 13.4028 28.7274C15.888 31.7372 19.3691 33.7573 23.2154 34.4217C27.0617 35.0861 31.0187 34.3509 34.3696 32.3491L43.4296 34.7492Z" stroke="black" stroke-width="3" stroke-linecap="round" stroke-linejoin="round"/>
<path d="M21.2392 13.1795C21.522 12.5705 21.9557 12.0438 22.4992 11.6495C23.0666 11.2348 23.7081 10.9328 24.3892 10.7596C25.1186 10.5571 25.8723 10.4562 26.6292 10.4595C27.6053 10.4483 28.5749 10.6178 29.4892 10.9595C30.2808 11.2717 30.9722 11.7937 31.4892 12.4695C32.021 13.1957 32.2923 14.0801 32.2592 14.9795C32.2807 15.58 32.1573 16.1769 31.8992 16.7195C31.6849 17.1572 31.3818 17.5454 31.0092 17.8595C30.6522 18.1514 30.2782 18.4218 29.8892 18.6695C29.4292 18.9495 29.0592 19.1895 28.7792 19.3995C28.5177 19.5765 28.3018 19.813 28.1492 20.0895L28.0192 20.3395C28.0192 20.7395 27.9592 21.1695 27.9592 21.3395C27.9592 21.5095 27.0992 21.5895 26.0492 21.5895C25.4009 21.6401 24.7487 21.5827 24.1192 21.4195C24.1192 21.3395 24.1192 20.7395 24.0392 20.0895L24.1492 19.5995C24.2565 19.1193 24.4681 18.6686 24.7692 18.2795C25.1055 17.8685 25.5202 17.5286 25.9892 17.2795C26.4529 17.0248 26.8916 16.7268 27.2992 16.3896C27.5527 16.1507 27.719 15.8338 27.7716 15.4895C27.8241 15.1451 27.76 14.7932 27.5892 14.4895C27.4503 14.2898 27.2604 14.1309 27.0392 14.0295C26.809 13.9291 26.5604 13.8781 26.3092 13.8796C26.0997 13.8759 25.8918 13.9168 25.6992 13.9995C25.5208 14.0803 25.3606 14.1964 25.2282 14.3407C25.0959 14.4851 24.9942 14.6548 24.9292 14.8395L24.8692 15.0295C24.8692 15.2695 23.9292 15.4695 22.8692 15.4695C22.6374 15.4943 22.403 15.4722 22.1799 15.4046C21.9568 15.337 21.7495 15.2253 21.5704 15.0761C21.3913 14.9268 21.2441 14.7431 21.1374 14.5359C21.0306 14.3286 20.9667 14.102 20.9492 13.8695L21.2392 13.1795ZM24.3092 23.1795C24.8524 22.7822 25.5176 22.5876 26.1892 22.6296C26.8638 22.5894 27.5315 22.7837 28.0792 23.1795C28.2999 23.3585 28.4762 23.5862 28.5941 23.8447C28.7121 24.1032 28.7686 24.3855 28.7592 24.6695C28.7686 24.9521 28.7121 25.2329 28.594 25.4898C28.476 25.7467 28.2997 25.9726 28.0792 26.1495C27.5186 26.5153 26.8636 26.71 26.1942 26.71C25.5248 26.71 24.8699 26.5153 24.3092 26.1495C24.0869 25.9742 23.9093 25.7486 23.7911 25.4914C23.6729 25.2341 23.6175 24.9524 23.6292 24.6695C23.6238 24.3919 23.6822 24.1166 23.8001 23.8652C23.9181 23.6138 24.0922 23.3928 24.3092 23.2195V23.1795Z" fill="black"/>
</svg>
